<?xml version="1.0" encoding="UTF-8"?>
<svg width="222px" height="256px" viewBox="0 0 222 256" version="1.1" xmlns="http://www.w3.org/2000/svg" xmlns:xlink="http://www.w3.org/1999/xlink">
    <!-- Generator: Sketch 47.1 (45422) - http://www.bohemiancoding.com/sketch -->
    <title>Monaco</title>
    <desc>Created with Sketch.</desc>
    <defs></defs>
    <g id="Black-&amp;-White" stroke="none" stroke-width="1" fill="none" fill-rule="evenodd">
        <g transform="translate(-5220.000000, -5445.000000)" id="Monaco" fill="#000000">
            <g transform="translate(5220.000000, 5445.000000)">
                <path d="M110.422808,106.773012 L110.422808,99.9860733 L164.50533,100.014989 L153.965449,55.4797801 L110.422808,55.4797801 L110.422808,4.54747351e-13 L221.817794,63.9846314 L221.817794,192.032066 L110.422808,255.998666 L110.422808,159.361869 L132.269841,159.318735 L129.514975,131.589757 L138.844678,106.773012 L110.422808,106.773012 Z M110.422808,159.361869 L110.422808,255.998666 L0,192.037189 L0,63.9846314 L110.422808,4.54747351e-13 L110.422808,55.4797801 L66.6240326,55.4797801 L56.6220317,99.957308 L110.422808,99.9860733 L110.422808,106.773012 L82.2315596,106.773012 L91.7532596,131.589757 L88.836005,159.404489 L110.422808,159.361869 Z M119.495147,188.749668 L138.335075,206.113039 L154.058989,206.113039 L193.759633,136.930134 L164.551434,114.941099 L138.96127,131.589757 L138.96127,161.165353 L119.456728,179.891353 L119.495147,188.749668 Z M27.0220512,136.930134 L66.9212496,206.314052 L82.8590859,206.314052 L101.716841,188.727948 L101.725959,179.92588 L82.1547196,161.161665 L82.1547196,131.589757 L56.2865997,115.142215 L27.0220512,136.930134 Z" id="Combined-Shape"></path>
            </g>
        </g>
    </g>
</svg>