<?xml version="1.0" encoding="UTF-8"?>
<svg width="256px" height="256px" viewBox="0 0 256 256" version="1.1" xmlns="http://www.w3.org/2000/svg" xmlns:xlink="http://www.w3.org/1999/xlink">
    <!-- Generator: Sketch 47.1 (45422) - http://www.bohemiancoding.com/sketch -->
    <title>Waves</title>
    <desc>Created with Sketch.</desc>
    <defs></defs>
    <g id="Black-&amp;-White" stroke="none" stroke-width="1" fill="none" fill-rule="evenodd">
        <g transform="translate(-906.000000, -1805.000000)" id="Waves" fill="#000000">
            <g transform="translate(906.000000, 1805.000000)">
                <path d="M211.341638,71.825105 L147.918246,8.35987766 C136.942741,-2.61575452 119.013274,-2.61575452 108.079605,8.35987766 L44.6980478,71.6994719 C41.053534,75.3439856 41.053534,81.3344624 44.6980478,84.9789761 L63.9261937,104.206994 L76.7030373,116.020479 C80.5151472,119.53936 86.2961927,119.53936 90.1083026,116.020479 L115.703825,92.3518017 C122.741586,85.8586643 133.549494,85.8586643 140.54542,92.3518017 L166.140942,116.020479 C169.911217,119.53936 175.734098,119.53936 179.504245,116.020479 L192.281216,104.207122 L211.341638,85.1465723 C215.027987,81.4602235 215.027987,75.5114539 211.341638,71.825105" id="Fill-1"></path>
                <path d="M8.58777011,147.690302 L108.037693,247.140225 C119.013325,258.115729 136.942665,258.115729 147.876334,247.140225 L247.326257,147.690302 C264.585467,130.431092 252.437045,125.362266 239.785963,113.381313 L224.202331,98.5936984 C220.432056,95.0328548 214.609303,95.0748178 210.797193,98.5936984 L185.201415,122.262248 C178.163782,128.755386 167.355746,128.755386 160.359948,122.262248 L134.764426,98.5936984 C130.994151,95.0748178 125.17127,95.0748178 121.401123,98.5936984 L95.8054733,122.262248 C88.7677121,128.755386 77.9598041,128.755386 70.964006,122.262248 L45.3683558,98.5936984 C41.5562459,95.0748178 35.7752004,95.0748178 31.9630905,98.5936984 L17.6363018,111.831368 C4.48243078,124.063587 -9.42549525,129.677037 8.58777011,147.690302" id="Fill-4"></path>
            </g>
        </g>
    </g>
</svg>